# Blender v2.91.0 OBJ File: 'tank.blend'
# www.blender.org
mtllib tank.mtl
o Cube
v -0.473426 2.119057 0.378321
v -0.473426 2.119053 -0.568531
v -0.852842 1.870613 0.435779
v -0.852842 1.870613 -0.625511
v -0.669525 2.119055 -0.095105
v -0.668946 0.973350 0.435779
v -0.668946 0.973350 -0.625511
v -0.989856 1.645166 0.900892
v -0.995533 1.378278 0.901813
v -0.473426 2.470565 0.378319
v -0.669526 2.470563 -0.095107
v -0.473426 2.470561 -0.568533
v -1.374365 1.465922 0.620799
v -1.416776 1.397069 0.620799
v -1.111577 0.587128 0.334967
v -1.111577 0.587128 -1.199275
v -1.508660 0.599500 0.280986
v -1.508660 0.599500 -1.145294
v -1.090297 1.270069 1.600787
v -1.487381 1.282442 1.457732
v -1.508660 0.599500 -1.778508
v -1.111577 0.587128 -1.880420
v -1.508660 0.599500 0.914200
v -1.111577 0.587128 1.016112
v -1.609320 1.187769 0.405439
v -1.609320 1.187769 -1.269747
v -1.624328 0.706095 0.070819
v -1.624328 0.706095 -0.935127
v -1.609320 1.187769 0.900771
v -1.624328 0.706095 0.517421
v -1.609320 1.187769 -1.765079
v -1.624328 0.706095 -1.381729
v -0.968870 1.193307 0.572564
v -0.968870 1.193307 -1.436872
v -0.985606 0.656181 0.171178
v -0.985606 0.656181 -1.035486
v -0.985606 0.656181 0.706891
v -0.968870 1.193307 1.166731
v -0.985606 0.656181 -1.571199
v -0.968870 1.193307 -2.031039
v -1.487381 1.282442 -2.322041
v -1.090297 1.270069 -2.465095
v -1.081009 1.754011 -1.709627
v -1.090297 1.270069 -1.709627
v -1.374365 1.465922 -1.485107
v -1.416776 1.397069 -1.485107
v -1.141662 1.513884 -1.692546
v -1.147421 1.329064 -1.692546
v -1.279762 1.521554 -1.636815
v -1.393602 1.336735 -1.636815
v -0.918609 1.441714 -0.913613
v -0.924368 1.256894 -0.913613
v -1.056709 1.449384 -0.857882
v -1.170549 1.264565 -0.857882
v -1.303760 1.580549 0.755426
v -1.303760 1.580549 -1.619734
v -1.487381 1.282442 0.755426
v -1.487381 1.282442 -1.619734
v -1.471337 1.510968 0.295204
v -1.471337 1.510968 -1.159512
v -1.500633 1.463405 0.295204
v -1.500633 1.463405 -1.159512
v -1.081009 1.754011 0.845319
v -0.093228 1.642089 1.444159
v -1.090297 1.270069 0.845319
v -0.092673 1.375204 1.443238
v -0.152629 1.573142 1.154804
v -0.151720 1.444556 1.153296
v -0.931777 1.575815 0.682351
v -0.935154 1.447225 0.683859
v -0.093228 1.642089 1.190209
v -0.092673 1.375204 1.189288
v -0.989856 1.645166 0.646942
v -0.995533 1.378278 0.647863
v -0.528307 1.538949 2.032779
v -0.527891 1.480200 2.032090
v -0.884288 1.540170 1.816922
v -0.885831 1.481419 1.817611
v -1.178347 1.388217 1.817613
v -1.174499 1.588683 1.817613
v -1.342832 1.393342 1.780376
v -1.266770 1.516829 1.780376
v -0.317126 2.642317 0.246049
v -0.458438 2.642316 -0.095108
v -0.317126 2.642314 -0.436264
v -0.473426 2.519536 0.378319
v -0.669526 2.519535 -0.095107
v -0.458438 2.593344 -0.095108
v -0.473426 2.519534 -0.568533
v -0.317126 2.593344 0.246049
v -0.317126 2.593343 -0.436264
v 0.000000 2.119058 0.574420
v 0.473426 2.119057 0.378321
v 0.000000 2.119052 -0.764631
v 0.473426 2.119053 -0.568531
v 0.000000 1.865585 0.912132
v 0.852842 1.870613 0.435779
v 0.000000 1.865585 -1.103779
v 0.852842 1.870613 -0.625511
v 0.669525 2.119055 -0.095105
v 0.000000 0.968322 0.650701
v 0.668946 0.973350 0.435779
v 0.000000 0.968322 -0.842348
v 0.668946 0.973350 -0.625511
v 0.000000 1.750300 1.499727
v 0.989856 1.645166 0.900892
v 0.000000 1.740346 -2.463379
v 0.000000 1.266358 1.499727
v 0.995533 1.378278 0.901813
v 0.000000 1.276312 -2.356267
v 0.000000 2.470566 0.574418
v 0.473426 2.470565 0.378319
v 0.000000 2.470560 -0.764633
v 0.669526 2.470563 -0.095107
v 0.473426 2.470561 -0.568533
v 1.374365 1.465922 0.620799
v 1.416776 1.397069 0.620799
v 1.111577 0.587128 0.334967
v 1.111577 0.587128 -1.199275
v 1.508660 0.599500 0.280986
v 1.508660 0.599500 -1.145294
v 1.090297 1.270069 1.600787
v 1.487381 1.282442 1.457732
v 1.508660 0.599500 -1.778508
v 1.111577 0.587128 -1.880420
v 1.508660 0.599500 0.914200
v 1.111577 0.587128 1.016112
v 1.609320 1.187769 0.405439
v 1.609320 1.187769 -1.269747
v 1.624328 0.706095 0.070819
v 1.624328 0.706095 -0.935127
v 1.609320 1.187769 0.900771
v 1.624328 0.706095 0.517421
v 1.609320 1.187769 -1.765079
v 1.624328 0.706095 -1.381729
v 0.968870 1.193307 0.572564
v 0.968870 1.193307 -1.436872
v 0.985606 0.656181 0.171178
v 0.985606 0.656181 -1.035486
v 0.985606 0.656181 0.706891
v 0.968870 1.193307 1.166731
v 0.985606 0.656181 -1.571199
v 0.968870 1.193307 -2.031039
v 1.487381 1.282442 -2.322041
v 1.090297 1.270069 -2.465095
v 1.081009 1.754011 -1.709627
v 1.090297 1.270069 -1.709627
v 1.374365 1.465922 -1.485107
v 1.416776 1.397069 -1.485107
v 1.141662 1.513884 -1.692546
v 1.147421 1.329064 -1.692546
v 1.279762 1.521554 -1.636815
v 1.393602 1.336735 -1.636815
v 0.918609 1.441714 -0.913613
v 0.924368 1.256894 -0.913613
v 1.056709 1.449384 -0.857882
v 1.170549 1.264565 -0.857882
v 1.303760 1.580549 0.755426
v 1.303760 1.580549 -1.619734
v 1.487381 1.282442 0.755426
v 1.487381 1.282442 -1.619734
v 1.471337 1.510968 0.295204
v 1.471337 1.510968 -1.159512
v 1.500633 1.463405 0.295204
v 1.500633 1.463405 -1.159512
v 1.081009 1.754011 0.845319
v 0.093228 1.642089 1.444159
v 1.090297 1.270069 0.845319
v 0.092673 1.375204 1.443238
v 0.152629 1.573142 1.154804
v 0.151720 1.444556 1.153296
v 0.931777 1.575815 0.682351
v 0.935154 1.447225 0.683859
v 0.093228 1.642089 1.190209
v 0.092673 1.375204 1.189288
v 0.989856 1.645166 0.646942
v 0.995533 1.378278 0.647863
v 0.528307 1.538949 2.032779
v 0.527891 1.480200 2.032090
v 0.884288 1.540170 1.816922
v 0.885831 1.481419 1.817611
v 1.178347 1.388217 1.817613
v 1.174499 1.588683 1.817613
v 1.342832 1.393342 1.780376
v 1.266770 1.516829 1.780376
v 0.000000 2.642318 0.387360
v 0.317126 2.642317 0.246049
v 0.000000 2.642313 -0.577576
v 0.458438 2.642316 -0.095108
v 0.317126 2.642314 -0.436264
v 0.000000 2.519536 0.574418
v 0.473426 2.519536 0.378319
v 0.669526 2.519535 -0.095107
v 0.458438 2.593344 -0.095108
v 0.473426 2.519534 -0.568533
v 0.000000 2.519533 -0.764633
v 0.000000 2.593345 0.387360
v 0.317126 2.593344 0.246049
v 0.317126 2.593343 -0.436264
v 0.000000 2.593343 -0.577576
vt 0.592427 0.424659
vt 0.592427 0.424659
vt 0.592427 0.424659
vt 0.592427 0.424659
vt 0.592427 0.424659
vt 0.592427 0.424659
vt 0.592427 0.424659
vt 0.592427 0.424659
vt 0.592427 0.424659
vt 0.592427 0.424659
vt 0.592427 0.424659
vt 0.592427 0.424659
vt 0.592427 0.424659
vt 0.592427 0.424659
vt 0.592427 0.424659
vt 0.592427 0.424659
vt 0.592427 0.424659
vt 0.592427 0.424659
vt 0.592427 0.424659
vt 0.592427 0.424659
vt 0.592427 0.424659
vt 0.592427 0.424659
vt 0.592427 0.424659
vt 0.592427 0.424659
vt 0.592427 0.424659
vt 0.592427 0.424659
vt 0.592427 0.424659
vt 0.592427 0.424659
vt 0.592427 0.424659
vt 0.592427 0.424659
vt 0.592427 0.424659
vt 0.592427 0.424659
vt 0.592427 0.424659
vt 0.592427 0.424659
vt 0.592427 0.424659
vt 0.592427 0.424659
vt 0.592427 0.424659
vt 0.592427 0.424659
vt 0.592427 0.424659
vt 0.592427 0.424659
vt 0.592427 0.424659
vt 0.592427 0.424659
vt 0.592427 0.424659
vt 0.592427 0.424659
vt 0.592427 0.424659
vt 0.592427 0.424659
vt 0.592427 0.424659
vt 0.592427 0.424659
vt 0.592427 0.424659
vt 0.592427 0.424659
vt 0.592427 0.424659
vt 0.592427 0.424659
vt 0.592427 0.424659
vt 0.592427 0.424659
vt 0.592427 0.424659
vt 0.592427 0.424659
vt 0.592427 0.424659
vt 0.592427 0.424659
vt 0.592427 0.424659
vt 0.592427 0.424659
vt 0.592427 0.424659
vt 0.592427 0.424659
vt 0.592427 0.424659
vt 0.592427 0.424659
vt 0.592427 0.424659
vt 0.604146 0.444190
vt 0.604146 0.444190
vt 0.604146 0.444190
vt 0.604146 0.444190
vt 0.592427 0.424659
vt 0.592427 0.424659
vt 0.604146 0.444190
vt 0.604146 0.444190
vt 0.592427 0.424659
vt 0.592427 0.424659
vt 0.592427 0.424659
vt 0.592427 0.424659
vt 0.592427 0.424659
vt 0.592427 0.424659
vt 0.592427 0.424659
vt 0.592427 0.424659
vt 0.592427 0.424659
vt 0.592427 0.424659
vt 0.592427 0.424659
vt 0.592427 0.424659
vt 0.592427 0.424659
vt 0.592427 0.424659
vt 0.592427 0.424659
vt 0.592427 0.424659
vt 0.592427 0.424659
vt 0.592427 0.424659
vt 0.592427 0.424659
vt 0.592427 0.424659
vt 0.592427 0.424659
vt 0.592427 0.424659
vt 0.854146 0.928565
vt 0.854146 0.928565
vt 0.854146 0.928565
vt 0.854146 0.928565
vt 0.592427 0.424659
vt 0.592427 0.424659
vt 0.592427 0.424659
vt 0.592427 0.424659
vt 0.592427 0.424659
vt 0.592427 0.424659
vt 0.592427 0.424659
vt 0.592427 0.424659
vt 0.592427 0.424659
vt 0.592427 0.424659
vt 0.592427 0.424659
vt 0.592427 0.424659
vt 0.592427 0.424659
vt 0.592427 0.424659
vt 0.592427 0.424659
vt 0.592427 0.424659
vt 0.592427 0.424659
vt 0.592427 0.424659
vt 0.592427 0.424659
vt 0.592427 0.424659
vt 0.592427 0.424659
vt 0.592427 0.424659
vt 0.592427 0.424659
vt 0.592427 0.424659
vt 0.592427 0.424659
vt 0.592427 0.424659
vt 0.592427 0.424659
vt 0.592427 0.424659
vt 0.592427 0.424659
vt 0.592427 0.424659
vt 0.592427 0.424659
vt 0.592427 0.424659
vt 0.592427 0.424659
vt 0.592427 0.424659
vt 0.592427 0.424659
vt 0.592427 0.424659
vt 0.592427 0.424659
vt 0.592427 0.424659
vt 0.592427 0.424659
vt 0.592427 0.424659
vt 0.592427 0.424659
vt 0.592427 0.424659
vt 0.592427 0.424659
vt 0.592427 0.424659
vt 0.592427 0.424659
vt 0.592427 0.424659
vt 0.592427 0.424659
vt 0.592427 0.424659
vt 0.592427 0.424659
vt 0.592427 0.424659
vt 0.592427 0.424659
vt 0.592427 0.424659
vt 0.592427 0.424659
vt 0.592427 0.424659
vt 0.592427 0.424659
vt 0.604146 0.444190
vt 0.604146 0.444190
vt 0.604146 0.444190
vt 0.604146 0.444190
vt 0.592427 0.424659
vt 0.592427 0.424659
vt 0.604146 0.444190
vt 0.604146 0.444190
vt 0.592427 0.424659
vt 0.592427 0.424659
vt 0.592427 0.424659
vt 0.592427 0.424659
vt 0.592427 0.424659
vt 0.592427 0.424659
vt 0.592427 0.424659
vt 0.592427 0.424659
vt 0.592427 0.424659
vt 0.592427 0.424659
vt 0.592427 0.424659
vt 0.592427 0.424659
vt 0.592427 0.424659
vt 0.592427 0.424659
vt 0.592427 0.424659
vt 0.592427 0.424659
vt 0.592427 0.424659
vt 0.592427 0.424659
vt 0.592427 0.424659
vt 0.592427 0.424659
vt 0.592427 0.424659
vt 0.592427 0.424659
vt 0.854146 0.928565
vt 0.854146 0.928565
vt 0.854146 0.928565
vt 0.854146 0.928565
vt 0.854146 0.928565
vt 0.854146 0.928565
vt 0.854146 0.928565
vt 0.854146 0.928565
vt 0.854146 0.928565
vt 0.854146 0.928565
vt 0.854146 0.928565
vt 0.854146 0.928565
vt 0.854146 0.928565
vt 0.854146 0.928565
vt 0.854146 0.928565
vt 0.854146 0.928565
vt 0.854146 0.928565
vt 0.854146 0.928565
vt 0.854146 0.928565
vt 0.854146 0.928565
vt 0.854146 0.928565
vt 0.854146 0.928565
vt 0.854146 0.928565
vt 0.854146 0.928565
vt 0.854146 0.928565
vt 0.854146 0.928565
vt 0.854146 0.928565
vt 0.854146 0.928565
vt 0.854146 0.928565
vt 0.854146 0.928565
vt 0.854146 0.928565
vt 0.854146 0.928565
vt 0.705708 0.561378
vt 0.705708 0.561378
vt 0.705708 0.561378
vt 0.705708 0.561378
vt 0.705708 0.561378
vt 0.705708 0.561378
vt 0.705708 0.561378
vt 0.705708 0.561378
vt 0.705708 0.561378
vt 0.705708 0.561378
vt 0.705708 0.561378
vt 0.705708 0.561378
vt 0.721333 0.553565
vt 0.721333 0.553565
vt 0.721333 0.553565
vt 0.721333 0.553565
vt 0.721333 0.553565
vt 0.721333 0.553565
vt 0.721333 0.553565
vt 0.705708 0.561378
vt 0.721333 0.553565
vt 0.705708 0.561378
vt 0.705708 0.561378
vt 0.705708 0.561378
vt 0.705708 0.561378
vt 0.705708 0.561378
vt 0.705708 0.561378
vt 0.705708 0.561378
vt 0.721333 0.553565
vt 0.721333 0.553565
vt 0.705708 0.561378
vt 0.705708 0.561378
vt 0.705708 0.561378
vt 0.705708 0.561378
vt 0.705708 0.561378
vt 0.705708 0.561378
vt 0.705708 0.561378
vt 0.705708 0.561378
vt 0.721333 0.553565
vt 0.721333 0.553565
vt 0.721333 0.553565
vt 0.721333 0.553565
vt 0.721333 0.553565
vt 0.705708 0.561378
vt 0.705708 0.561378
vt 0.705708 0.561378
vt 0.705708 0.561378
vt 0.721333 0.553565
vn -0.1864 -0.9109 0.3681
vn -0.6546 0.7560 -0.0000
vn -0.3108 0.7218 0.6184
vn -0.3112 0.7225 -0.6174
vn -0.0075 -1.0000 0.0000
vn -0.1128 0.9732 0.2005
vn -0.5758 -0.8176 0.0000
vn -1.0000 -0.0021 0.0000
vn -0.5401 -0.0893 -0.8369
vn -0.0501 0.9943 -0.0937
vn -0.1023 -0.9724 -0.2097
vn -0.4551 0.8905 0.0000
vn -0.8095 0.4986 -0.3101
vn 0.5343 0.8453 0.0000
vn -0.6305 0.7730 0.0708
vn -0.6144 0.7890 0.0000
vn -0.6133 0.7899 0.0000
vn -0.9585 -0.1586 0.2368
vn -0.9995 0.0311 0.0000
vn -0.9585 -0.1586 -0.2368
vn -0.6777 -0.7354 0.0000
vn 0.9995 -0.0311 0.0000
vn 0.4807 -0.8769 0.0000
vn 0.9073 -0.2894 0.3050
vn 0.9073 -0.2894 -0.3050
vn -0.2877 0.0065 -0.9577
vn 0.0488 0.9957 0.0783
vn -0.2686 0.1655 -0.9489
vn -0.2182 0.0706 -0.9734
vn -0.3927 0.0481 -0.9184
vn -0.2742 0.0887 -0.9576
vn 0.8172 -0.5034 -0.2807
vn -0.0828 -0.9942 -0.0684
vn -0.9602 0.0299 0.2777
vn -0.8514 0.5244 0.0000
vn -0.8514 0.5245 0.0000
vn -0.6204 -0.7843 0.0000
vn -0.8095 0.4986 0.3101
vn 0.4213 0.9069 0.0000
vn -0.5180 0.0050 0.8554
vn -0.5145 0.0049 0.8575
vn -0.5162 -0.0014 0.8564
vn -0.5162 0.0113 0.8564
vn -0.9987 0.0267 0.0426
vn -0.0034 -1.0000 0.0000
vn 0.9998 -0.0213 0.0000
vn 0.0034 1.0000 0.0000
vn -0.5162 -0.0072 0.8564
vn -0.5183 0.0050 0.8552
vn -0.5141 0.0049 0.8577
vn -0.5161 0.0171 0.8563
vn -0.5162 0.0050 0.8564
vn -0.0160 0.9994 0.0321
vn -0.0220 -0.9993 0.0311
vn 0.9193 0.0019 0.3935
vn -0.2952 0.0728 0.9526
vn 0.9955 -0.0191 0.0925
vn -0.8497 0.5234 0.0632
vn -0.0570 -0.9917 0.1153
vn 0.1864 -0.9109 0.3681
vn 0.6546 0.7560 -0.0000
vn 0.3108 0.7218 0.6184
vn 0.3112 0.7225 -0.6174
vn 0.0075 -1.0000 0.0000
vn 0.1128 0.9732 0.2005
vn 0.5758 -0.8176 0.0000
vn 1.0000 -0.0021 0.0000
vn 0.5401 -0.0893 -0.8369
vn 0.0501 0.9943 -0.0937
vn 0.1023 -0.9724 -0.2097
vn 0.4551 0.8905 0.0000
vn 0.8095 0.4986 -0.3101
vn -0.5343 0.8453 0.0000
vn 0.6305 0.7730 0.0708
vn 0.6144 0.7890 0.0000
vn 0.6133 0.7899 0.0000
vn 0.9585 -0.1586 0.2368
vn 0.9995 0.0311 0.0000
vn 0.9585 -0.1586 -0.2368
vn 0.6777 -0.7354 0.0000
vn -0.9995 -0.0311 0.0000
vn -0.4807 -0.8769 0.0000
vn -0.9073 -0.2894 0.3050
vn -0.9073 -0.2894 -0.3050
vn 0.2877 0.0065 -0.9577
vn -0.0488 0.9957 0.0783
vn 0.2686 0.1655 -0.9489
vn 0.2182 0.0706 -0.9734
vn 0.3927 0.0481 -0.9184
vn 0.2742 0.0887 -0.9576
vn -0.8172 -0.5034 -0.2807
vn 0.0828 -0.9942 -0.0684
vn 0.9602 0.0299 0.2777
vn 0.8514 0.5244 0.0000
vn 0.8514 0.5245 0.0000
vn 0.6204 -0.7843 0.0000
vn 0.8095 0.4986 0.3101
vn -0.4213 0.9069 0.0000
vn 0.5180 0.0050 0.8554
vn 0.5145 0.0049 0.8575
vn 0.5162 -0.0014 0.8564
vn 0.5162 0.0113 0.8564
vn 0.9987 0.0267 0.0426
vn 0.0034 -1.0000 0.0000
vn -0.9998 -0.0213 0.0000
vn -0.0034 1.0000 0.0000
vn 0.5162 -0.0072 0.8564
vn 0.5183 0.0050 0.8552
vn 0.5141 0.0049 0.8577
vn 0.5161 0.0171 0.8563
vn 0.5162 0.0050 0.8564
vn 0.0160 0.9994 0.0321
vn 0.0220 -0.9993 0.0311
vn -0.9193 0.0019 0.3935
vn 0.2952 0.0728 0.9526
vn -0.9955 -0.0191 0.0925
vn 0.8497 0.5234 0.0632
vn 0.0570 -0.9917 0.1153
vn -0.0311 -0.9995 0.0000
vn -0.2505 -0.6119 0.7502
vn -0.2505 -0.6119 -0.7502
vn 0.0311 0.9995 0.0000
vn 0.0311 -0.9995 0.0000
vn 0.2505 -0.6119 0.7502
vn 0.2505 -0.6119 -0.7502
vn -0.0311 0.9995 0.0000
vn -0.9239 -0.0000 -0.3827
vn -0.9239 0.0000 0.3827
vn -0.3827 0.0000 0.9239
vn -0.3827 -0.0000 -0.9239
vn 0.0000 1.0000 -0.0000
vn -0.4070 0.0000 0.9134
vn -0.1507 0.9234 -0.3531
vn -0.3270 0.9353 0.1355
vn -0.3270 0.9353 -0.1355
vn -0.1507 0.9234 0.3531
vn -0.4070 0.0000 -0.9134
vn 0.9239 -0.0000 -0.3827
vn 0.9239 0.0000 0.3827
vn 0.3827 0.0000 0.9239
vn 0.3827 -0.0000 -0.9239
vn 0.4070 0.0000 0.9134
vn 0.1507 0.9234 -0.3531
vn 0.3270 0.9353 0.1355
vn 0.3270 0.9353 -0.1355
vn 0.1507 0.9234 0.3531
vn 0.4070 0.0000 -0.9134
usemtl Material
s off
f 101/1/1 108/2/1 65/3/1 6/4/1
f 2/5/2 4/6/2 3/7/2 1/8/2 5/9/2
f 1/8/3 3/7/3 96/10/3 92/11/3
f 94/12/4 98/13/4 4/6/4 2/5/4
f 103/14/5 101/1/5 6/4/5 7/15/5
f 3/7/6 63/16/6 105/17/6 96/10/6
f 6/4/7 65/3/7 44/18/7 7/15/7
f 64/19/8 71/20/8 72/21/8 66/22/8
f 107/23/9 110/24/9 44/18/9 43/25/9
f 98/13/10 107/23/10 43/25/10 4/6/10
f 7/15/11 44/18/11 110/24/11 103/14/11
f 4/6/12 43/25/12 63/16/12 3/7/12
f 46/26/13 62/27/13 60/28/13 45/29/13
f 65/3/14 33/30/14 34/31/14 44/18/14
f 55/32/15 82/33/15 80/34/15 63/16/15
f 43/25/16 56/35/16 55/32/16 63/16/16
f 44/18/14 34/31/14 40/36/14 42/37/14
f 57/38/17 25/39/17 29/40/17 20/41/17
f 58/42/17 26/43/17 25/39/17 57/38/17
f 20/41/18 29/40/18 30/44/18 23/45/18
f 19/46/14 38/47/14 33/30/14 65/3/14
f 26/43/19 31/48/19 32/49/19 28/50/19
f 26/43/19 28/50/19 27/51/19 25/39/19
f 27/51/19 30/44/19 29/40/19 25/39/19
f 21/52/20 32/49/20 31/48/20 41/53/20
f 18/54/21 28/50/21 32/49/21 21/52/21
f 41/53/17 31/48/17 26/43/17 58/42/17
f 23/45/21 30/44/21 27/51/21 17/55/21
f 17/55/21 27/51/21 28/50/21 18/54/21
f 33/30/22 38/47/22 37/56/22 35/57/22
f 33/30/22 35/57/22 36/58/22 34/31/22
f 36/58/22 39/59/22 40/36/22 34/31/22
f 16/60/23 36/58/23 35/57/23 15/61/23
f 24/62/24 37/56/24 38/47/24 19/46/24
f 15/61/23 35/57/23 37/56/23 24/62/23
f 22/63/23 39/59/23 36/58/23 16/60/23
f 42/37/25 40/36/25 39/59/25 22/63/25
f 44/18/26 48/64/26 47/65/26 43/25/26
f 50/66/27 54/67/27 52/68/27 48/69/27
f 56/35/28 49/70/28 50/71/28 58/42/28
f 58/72/29 50/66/29 48/69/29 44/73/29
f 43/25/30 47/65/30 49/70/30 56/35/30
f 54/74/31 53/75/31 51/76/31 52/77/31
f 49/70/32 53/75/32 54/74/32 50/71/32
f 47/65/33 51/76/33 53/75/33 49/70/33
f 48/64/34 52/77/34 51/76/34 47/65/34
f 13/78/35 55/32/35 56/35/35 45/29/35
f 46/26/35 58/42/35 57/38/35 14/79/35
f 14/79/35 57/38/35 55/32/35 13/78/35
f 45/29/35 56/35/35 58/42/35 46/26/35
f 60/28/36 62/27/36 61/80/36 59/81/36
f 14/79/37 61/80/37 62/27/37 46/26/37
f 13/78/38 59/81/38 61/80/38 14/79/38
f 45/29/39 60/28/39 59/81/39 13/78/39
f 64/19/40 105/17/40 63/16/40 8/82/40
f 9/83/41 65/3/41 108/2/41 66/22/41
f 66/22/42 108/2/42 105/17/42 64/19/42
f 8/82/43 63/16/43 65/3/43 9/83/43
f 70/84/44 78/85/44 77/86/44 69/87/44
f 8/82/45 73/88/45 71/20/45 64/19/45
f 9/83/46 74/89/46 73/88/46 8/82/46
f 66/22/47 72/21/47 74/89/47 9/83/47
f 68/90/48 72/21/48 71/20/48 67/91/48
f 67/91/49 71/20/49 73/88/49 69/87/49
f 70/84/50 74/89/50 72/21/50 68/90/50
f 69/87/51 73/88/51 74/89/51 70/84/51
f 77/86/52 78/85/52 76/92/52 75/93/52
f 69/87/53 77/86/53 75/93/53 67/91/53
f 68/90/54 76/92/54 78/85/54 70/84/54
f 67/91/55 75/93/55 76/92/55 68/90/55
f 80/34/56 82/33/56 81/94/56 79/95/56
f 63/16/57 80/34/57 79/95/57 65/3/57
f 57/38/58 81/94/58 82/33/58 55/32/58
f 65/96/59 79/97/59 81/98/59 57/99/59
f 101/1/60 102/100/60 168/101/60 108/2/60
f 95/102/61 100/103/61 93/104/61 97/105/61 99/106/61
f 93/104/62 92/11/62 96/10/62 97/105/62
f 94/12/63 95/102/63 99/106/63 98/13/63
f 103/14/64 104/107/64 102/100/64 101/1/64
f 97/105/65 96/10/65 105/17/65 166/108/65
f 102/100/66 104/107/66 147/109/66 168/101/66
f 167/110/67 169/111/67 175/112/67 174/113/67
f 107/23/68 146/114/68 147/109/68 110/24/68
f 98/13/69 99/106/69 146/114/69 107/23/69
f 104/107/70 103/14/70 110/24/70 147/109/70
f 99/106/71 97/105/71 166/108/71 146/114/71
f 149/115/72 148/116/72 163/117/72 165/118/72
f 168/101/73 147/109/73 137/119/73 136/120/73
f 158/121/74 166/108/74 183/122/74 185/123/74
f 146/114/75 166/108/75 158/121/75 159/124/75
f 147/109/73 145/125/73 143/126/73 137/119/73
f 160/127/76 123/128/76 132/129/76 128/130/76
f 161/131/76 160/127/76 128/130/76 129/132/76
f 123/128/77 126/133/77 133/134/77 132/129/77
f 122/135/73 168/101/73 136/120/73 141/136/73
f 129/132/78 131/137/78 135/138/78 134/139/78
f 129/132/78 128/130/78 130/140/78 131/137/78
f 130/140/78 128/130/78 132/129/78 133/134/78
f 124/141/79 144/142/79 134/139/79 135/138/79
f 121/143/80 124/141/80 135/138/80 131/137/80
f 144/142/76 161/131/76 129/132/76 134/139/76
f 126/133/80 120/144/80 130/140/80 133/134/80
f 120/144/80 121/143/80 131/137/80 130/140/80
f 136/120/81 138/145/81 140/146/81 141/136/81
f 136/120/81 137/119/81 139/147/81 138/145/81
f 139/147/81 137/119/81 143/126/81 142/148/81
f 119/149/82 118/150/82 138/145/82 139/147/82
f 127/151/83 122/135/83 141/136/83 140/146/83
f 118/150/82 127/151/82 140/146/82 138/145/82
f 125/152/82 119/149/82 139/147/82 142/148/82
f 145/125/84 125/152/84 142/148/84 143/126/84
f 147/109/85 146/114/85 150/153/85 151/154/85
f 153/155/86 151/156/86 155/157/86 157/158/86
f 159/124/87 161/131/87 153/159/87 152/160/87
f 161/161/88 147/162/88 151/156/88 153/155/88
f 146/114/89 159/124/89 152/160/89 150/153/89
f 157/163/90 155/164/90 154/165/90 156/166/90
f 152/160/91 153/159/91 157/163/91 156/166/91
f 150/153/92 152/160/92 156/166/92 154/165/92
f 151/154/93 150/153/93 154/165/93 155/164/93
f 116/167/94 148/116/94 159/124/94 158/121/94
f 149/115/94 117/168/94 160/127/94 161/131/94
f 117/168/94 116/167/94 158/121/94 160/127/94
f 148/116/94 149/115/94 161/131/94 159/124/94
f 163/117/95 162/169/95 164/170/95 165/118/95
f 117/168/96 149/115/96 165/118/96 164/170/96
f 116/167/97 117/168/97 164/170/97 162/169/97
f 148/116/98 116/167/98 162/169/98 163/117/98
f 167/110/99 106/171/99 166/108/99 105/17/99
f 109/172/100 169/111/100 108/2/100 168/101/100
f 169/111/101 167/110/101 105/17/101 108/2/101
f 106/171/102 109/172/102 168/101/102 166/108/102
f 173/173/103 172/174/103 180/175/103 181/176/103
f 106/171/104 167/110/104 174/113/104 176/177/104
f 109/172/105 106/171/105 176/177/105 177/178/105
f 169/111/106 109/172/106 177/178/106 175/112/106
f 171/179/107 170/180/107 174/113/107 175/112/107
f 170/180/108 172/174/108 176/177/108 174/113/108
f 173/173/109 171/179/109 175/112/109 177/178/109
f 172/174/110 173/173/110 177/178/110 176/177/110
f 180/175/111 178/181/111 179/182/111 181/176/111
f 172/174/112 170/180/112 178/181/112 180/175/112
f 171/179/113 173/173/113 181/176/113 179/182/113
f 170/180/114 171/179/114 179/182/114 178/181/114
f 183/122/115 182/183/115 184/184/115 185/123/115
f 166/108/116 168/101/116 182/183/116 183/122/116
f 160/127/117 158/121/117 185/123/117 184/184/117
f 168/185/118 160/186/118 184/187/118 182/188/118
usemtl Material.002
f 15/189/119 17/190/119 18/191/119 16/192/119
f 18/191/119 21/193/119 22/194/119 16/192/119
f 20/195/120 23/196/120 24/197/120 19/198/120
f 42/199/121 22/194/121 21/193/121 41/200/121
f 57/99/122 20/195/122 19/198/122 65/96/122
f 15/189/119 24/197/119 23/196/119 17/190/119
f 58/201/122 44/202/122 42/199/122 41/200/122
f 118/203/123 119/204/123 121/205/123 120/206/123
f 121/205/123 119/204/123 125/207/123 124/208/123
f 123/209/124 122/210/124 127/211/124 126/212/124
f 145/213/125 144/214/125 124/208/125 125/207/125
f 160/186/126 168/185/126 122/210/126 123/209/126
f 118/203/123 120/206/123 126/212/123 127/211/123
f 161/215/126 144/214/126 145/213/126 147/216/126
usemtl Material.003
f 5/217/127 11/218/127 12/219/127 2/220/127
f 10/221/128 86/222/128 87/223/128 11/218/128
f 92/224/129 111/225/129 10/221/129 1/226/129
f 2/220/130 12/219/130 113/227/130 94/228/130
f 1/226/128 10/221/128 11/218/128 5/217/128
f 188/229/131 85/230/131 84/231/131 83/232/131 186/233/131
f 84/231/128 88/234/128 90/235/128 83/232/128
f 111/225/129 191/236/129 86/222/129 10/221/129
f 83/232/132 90/235/132 197/237/132 186/233/132
f 89/238/133 91/239/133 200/240/133 196/241/133
f 86/222/134 90/242/134 88/243/134 87/223/134
f 87/223/135 88/243/135 91/239/135 89/238/135
f 191/236/136 197/244/136 90/242/136 86/222/136
f 85/230/127 91/245/127 88/234/127 84/231/127
f 11/218/127 87/223/127 89/238/127 12/219/127
f 188/229/137 200/246/137 91/245/137 85/230/137
f 12/219/130 89/238/130 196/241/130 113/227/130
f 100/247/138 95/248/138 115/249/138 114/250/138
f 112/251/139 114/250/139 193/252/139 192/253/139
f 92/224/140 93/254/140 112/251/140 111/225/140
f 95/248/141 94/228/141 113/227/141 115/249/141
f 93/254/139 100/247/139 114/250/139 112/251/139
f 188/229/131 186/233/131 187/255/131 189/256/131 190/257/131
f 189/256/139 187/255/139 198/258/139 194/259/139
f 111/225/140 112/251/140 192/253/140 191/236/140
f 187/255/142 186/233/142 197/237/142 198/258/142
f 195/260/143 196/241/143 200/240/143 199/261/143
f 192/253/144 193/252/144 194/262/144 198/263/144
f 193/252/145 195/260/145 199/261/145 194/262/145
f 191/236/146 192/253/146 198/263/146 197/244/146
f 190/257/138 189/256/138 194/259/138 199/264/138
f 114/250/138 115/249/138 195/260/138 193/252/138
f 188/229/147 190/257/147 199/264/147 200/246/147
f 115/249/141 113/227/141 196/241/141 195/260/141
